<svg width="512" height="512" viewBox="0 0 512 512" fill="none" xmlns="http://www.w3.org/2000/svg">
<path d="M309.781 381.313L301.344 366.656C305.47 363.407 308.288 358.779 309.28 353.621C310.272 348.463 309.372 343.12 306.745 338.572C304.118 334.024 299.939 330.574 294.976 328.857C290.012 327.139 284.595 327.267 279.719 329.219L271.25 314.563C270.519 313.303 269.504 312.231 268.286 311.431C267.069 310.632 265.681 310.127 264.235 309.957C262.788 309.788 261.322 309.957 259.952 310.453C258.582 310.948 257.347 311.756 256.344 312.813L185.719 386.938C185.249 387.423 184.949 388.048 184.865 388.719C184.78 389.389 184.915 390.069 185.25 390.656L179.844 393.781L178.281 391.063C177.871 390.354 177.197 389.837 176.406 389.625C176.01 389.512 175.595 389.481 175.186 389.535C174.778 389.589 174.384 389.726 174.031 389.938L163.187 396.188C161.037 397.435 159.47 399.486 158.831 401.888C158.192 404.291 158.534 406.849 159.781 409L172.281 430.625C172.889 431.697 173.705 432.637 174.682 433.388C175.659 434.14 176.776 434.688 177.969 435C178.762 435.221 179.582 435.337 180.406 435.344C182.045 435.341 183.653 434.898 185.062 434.063L195.906 427.813C196.261 427.61 196.573 427.338 196.822 427.014C197.072 426.689 197.254 426.319 197.359 425.923C197.463 425.528 197.488 425.115 197.432 424.71C197.376 424.305 197.24 423.915 197.031 423.563L195.469 420.844L200.875 417.719C200.883 417.719 200.891 417.722 200.897 417.728C200.903 417.734 200.906 417.742 200.906 417.75L218.094 447.5C219.114 449.278 220.476 450.837 222.101 452.086C223.726 453.336 225.582 454.252 227.562 454.781C228.889 455.127 230.254 455.305 231.625 455.313C234.367 455.307 237.06 454.585 239.437 453.219L247.531 448.531C247.889 448.327 248.203 448.054 248.455 447.728C248.708 447.402 248.893 447.029 249 446.631C249.108 446.233 249.135 445.818 249.082 445.409C249.028 445.001 248.894 444.607 248.687 444.25L230.562 412.844L303.875 395.094C305.29 394.753 306.606 394.086 307.719 393.147C308.831 392.208 309.709 391.022 310.282 389.684C310.856 388.345 311.109 386.892 311.022 385.439C310.935 383.986 310.51 382.573 309.781 381.313V381.313ZM301.344 341.688C303.144 344.804 303.813 348.447 303.238 352C302.663 355.553 300.879 358.798 298.187 361.188L282.875 334.688C286.289 333.549 289.991 333.624 293.355 334.899C296.72 336.175 299.542 338.572 301.344 341.688V341.688ZM181.937 428.656C181.218 429.069 180.364 429.182 179.562 428.969C179.167 428.863 178.797 428.678 178.475 428.426C178.152 428.174 177.885 427.859 177.687 427.5L165.187 405.875C164.773 405.157 164.659 404.305 164.87 403.503C165.08 402.702 165.599 402.015 166.312 401.594L174.437 396.906L190.062 423.969L181.937 428.656ZM192.344 415.438L182.969 399.188L188.375 396.063L197.75 412.313L192.344 415.438ZM241.719 444.656L236.312 447.781C234.16 449.023 231.604 449.361 229.203 448.723C226.802 448.084 224.751 446.521 223.5 444.375L208.406 418.219L224.219 414.375L241.719 444.656ZM304.531 387.219C304.343 387.666 304.053 388.063 303.684 388.377C303.315 388.692 302.877 388.916 302.406 389.031L205.125 412.563L191.844 389.563L260.875 317.125C261.206 316.769 261.616 316.496 262.072 316.328C262.528 316.16 263.017 316.101 263.5 316.156C263.982 316.214 264.445 316.382 264.851 316.647C265.258 316.913 265.597 317.269 265.844 317.688L304.375 384.406C304.622 384.829 304.765 385.305 304.792 385.794C304.82 386.283 304.73 386.771 304.531 387.219Z" fill="#156CB5"/>
<path d="M295.105 310.267L301.973 284.653L308.011 286.272L301.143 311.886L295.105 310.267Z" fill="#156CB5"/>
<path d="M291.676 323.08L293.964 314.544L300.001 316.162L297.713 324.698L291.676 323.08Z" fill="#156CB5"/>
<path d="M318.708 328.027L334.946 318.652L338.071 324.064L321.833 333.439L318.708 328.027Z" fill="#156CB5"/>
<path d="M307.887 334.305L316.005 329.617L319.13 335.03L311.012 339.717L307.887 334.305Z" fill="#156CB5"/>
<path d="M325.454 362.816L327.073 356.779L352.687 363.646L351.068 369.684L325.454 362.816Z" fill="#156CB5"/>
<path d="M312.651 359.398L314.269 353.362L322.808 355.651L321.19 361.688L312.651 359.398Z" fill="#156CB5"/>
<path d="M168.5 383.875H174.75V377.625H181V371.375H174.75V365.125H168.5V371.375H162.25V377.625H168.5V383.875Z" fill="#156CB5"/>
<path d="M240.375 287H246.625V280.75H252.875V274.5H246.625V268.25H240.375V274.5H234.125V280.75H240.375V287Z" fill="#156CB5"/>
<path d="M265.375 302.625H271.625V296.375H277.875V290.125H271.625V283.875H265.375V290.125H259.125V296.375H265.375V302.625Z" fill="#156CB5"/>
<path d="M206 283.875H212.25V296.375H206V283.875Z" fill="#156CB5"/>
<path d="M184.543 291.299L189.956 288.174L196.206 298.999L190.793 302.124L184.543 291.299Z" fill="#156CB5"/>
<path d="M169.675 308.455L172.8 303.042L183.625 309.292L180.5 314.705L169.675 308.455Z" fill="#156CB5"/>
<path d="M165.375 324.5H177.875V330.75H165.375V324.5Z" fill="#156CB5"/>
<path d="M169.68 346.784L180.505 340.534L183.63 345.947L172.805 352.197L169.68 346.784Z" fill="#156CB5"/>
<path d="M222.048 299.006L228.298 288.181L233.711 291.306L227.461 302.131L222.048 299.006Z" fill="#156CB5"/>
</svg>
