<svg width="512" height="512" viewBox="0 0 512 512" fill="none" xmlns="http://www.w3.org/2000/svg">
<path d="M269.071 276.64C269.071 274.153 271.087 272.138 273.574 272.138H274.646C277.133 272.138 279.149 274.153 279.149 276.64C279.149 279.127 277.133 281.143 274.646 281.143H273.574C271.087 281.143 269.071 279.127 269.071 276.64ZM275.284 381.314C275.284 383.801 277.3 385.816 279.787 385.816H280.859C283.346 385.816 285.362 383.801 285.362 381.314C285.362 378.827 283.346 376.811 280.859 376.811H279.787C277.301 376.811 275.284 378.827 275.284 381.314ZM280.324 360.673C291.704 360.673 300.963 369.933 300.963 381.314C300.963 391.148 294.049 399.399 284.826 401.459V415.132C284.826 417.619 282.811 419.635 280.324 419.635C277.836 419.635 275.821 417.619 275.821 415.132V401.459C266.597 399.399 259.683 391.149 259.683 381.314C259.683 369.933 268.942 360.673 280.324 360.673ZM280.324 369.679C273.908 369.679 268.688 374.899 268.688 381.314C268.688 387.729 273.908 392.948 280.324 392.948C286.739 392.948 291.958 387.729 291.958 381.314C291.958 374.899 286.739 369.679 280.324 369.679ZM207.803 321.409C207.803 310.028 217.063 300.768 228.445 300.768C239.826 300.768 249.086 310.028 249.086 321.409C249.086 331.243 242.171 339.494 232.947 341.555V355.227C232.947 357.714 230.932 359.73 228.445 359.73C225.958 359.73 223.942 357.714 223.942 355.227V341.555C214.719 339.495 207.803 331.244 207.803 321.409ZM216.809 321.409C216.809 327.824 222.029 333.044 228.445 333.044C234.86 333.044 240.08 327.824 240.08 321.409C240.08 314.993 234.86 309.774 228.445 309.774C222.029 309.774 216.809 314.993 216.809 321.409ZM253.469 276.64C253.469 265.259 262.729 256 274.11 256C285.491 256 294.751 265.259 294.751 276.64C294.751 286.475 287.836 294.726 278.612 296.786V310.459C278.612 312.946 276.597 314.962 274.11 314.962C271.623 314.962 269.607 312.946 269.607 310.459V296.786C260.384 294.726 253.469 286.475 253.469 276.64ZM262.475 276.64C262.475 283.056 267.694 288.275 274.11 288.275C280.525 288.275 285.745 283.056 285.745 276.64C285.745 270.225 280.525 265.006 274.11 265.006C267.694 265.006 262.475 270.225 262.475 276.64ZM329.622 333.834L322.083 331.105L315.872 288.576C315.133 283.512 312.328 279.317 307.972 276.765C305.826 275.507 303.068 276.229 301.811 278.374C300.554 280.519 301.274 283.278 303.42 284.535C305.452 285.726 306.61 287.473 306.961 289.877L313.562 335.073C313.801 336.714 314.925 338.091 316.485 338.656L326.557 342.302C333.461 344.801 334.141 346.524 333.963 347.746L323.127 421.941C322.618 425.429 320.319 427.642 316.294 428.52L247.997 443.419C247.39 443.551 246.918 443.451 246.361 443.074C244.877 442.07 243.525 439.468 243.071 436.749L242.707 434.568C242.487 433.25 241.693 432.097 240.539 431.422C239.384 430.746 237.99 430.62 236.733 431.075L176.389 452.915C175.53 453.228 174.447 452.405 174.136 452.145C172.702 450.951 171.798 448.981 172.035 447.563L192.958 322.253C193.467 319.2 195.131 316.304 196.747 315.659C199.057 314.737 200.182 312.118 199.259 309.808C198.337 307.498 195.717 306.371 193.409 307.295C187.811 309.529 184.917 315.722 184.075 320.771L163.152 446.08C162.383 450.687 164.433 455.784 168.374 459.066C170.695 460.998 173.334 462 175.955 462C177.135 462 178.312 461.797 179.454 461.384L234.923 441.307C236.17 445.262 238.447 448.592 241.311 450.531C243.915 452.295 246.891 452.877 249.916 452.218L318.213 437.319C325.939 435.634 330.978 430.503 332.037 423.242L342.873 349.048C344.319 339.154 333.641 335.289 329.622 333.834ZM227.91 325.912H228.982C231.469 325.912 233.484 323.896 233.484 321.409C233.484 318.922 231.469 316.906 228.982 316.906H227.91C225.423 316.906 223.408 318.922 223.408 321.409C223.408 323.896 225.423 325.912 227.91 325.912ZM219.436 292.46C219.687 292.502 219.936 292.522 220.183 292.522C222.343 292.522 224.251 290.962 224.618 288.76L226.904 275.069C227.359 272.349 228.711 269.748 230.195 268.742C230.752 268.366 231.226 268.266 231.832 268.398L242.985 270.831C245.416 271.363 247.814 269.821 248.344 267.392C248.874 264.962 247.334 262.563 244.904 262.033L233.751 259.6C230.727 258.94 227.75 259.523 225.146 261.286C221.566 263.71 218.903 268.308 218.022 273.585L215.736 287.277C215.327 289.73 216.983 292.05 219.436 292.46Z" fill="#156CB5"/>
</svg>
