<svg width="512" height="512" viewBox="0 0 512 512" fill="none" xmlns="http://www.w3.org/2000/svg">
<path d="M313.917 385.207C309.992 377.024 295.95 365.665 282.384 354.69C274.817 348.573 267.667 342.79 263.109 338.232C261.967 337.082 260.259 336.715 258.75 337.257C255.942 338.274 254.209 339.057 252.842 339.665C250.759 340.598 250.059 340.915 247.25 341.198C246.009 341.323 244.892 341.99 244.2 343.023C238.309 351.832 232.209 351.082 228.134 349.715C226.834 349.282 226.6 348.723 226.475 348.19C225.6 344.532 229.992 336.015 235.684 330.323C249.225 316.773 256.209 313.382 270.959 319.973C287.692 327.457 304.459 333.315 304.625 333.373C306.817 334.132 309.175 332.982 309.934 330.807C310.684 328.632 309.542 326.257 307.367 325.498C307.2 325.44 290.767 319.698 274.367 312.357C255.259 303.815 244.775 309.44 229.8 324.423C224.1 330.123 216.358 341.657 218.358 350.115C219.216 353.715 221.75 356.382 225.516 357.623C234.958 360.74 243.575 357.757 249.991 349.24C252.641 348.832 254.083 348.232 256.25 347.257C257.033 346.907 257.95 346.499 259.166 346.007C263.933 350.482 270.366 355.69 277.141 361.165C289.391 371.073 303.283 382.307 306.408 388.807C307.95 392.015 306.291 394.107 305.166 395.065C303.516 396.482 301.258 396.932 300.033 396.073C298.683 395.148 296.925 395.09 295.533 395.923C294.133 396.757 293.35 398.332 293.525 399.948C293.808 402.598 291.383 404.115 290.333 404.64C287.666 405.99 284.883 405.757 283.841 404.79C282.675 403.707 281 403.39 279.516 403.94C278.033 404.498 277 405.865 276.85 407.448C276.6 410.182 274.575 412.807 271.933 413.832C270.658 414.315 268.808 414.607 267.15 413.09C266.116 412.157 264.683 411.798 263.341 412.123C261.983 412.456 260.891 413.44 260.416 414.748C260.258 415.165 259.9 416.165 256 416.165C253.225 416.165 248.233 414.29 245.791 412.673C242.866 410.748 224.525 397.065 208.683 383.798C206.458 381.923 202.608 377.906 199.208 374.356C196.191 371.206 193.433 368.348 192.016 367.148C190.241 365.648 187.616 365.873 186.141 367.64C184.658 369.398 184.875 372.032 186.633 373.515C187.925 374.607 190.425 377.248 193.183 380.123C196.9 384.006 200.741 388.023 203.325 390.19C218.842 403.182 237.492 417.207 241.208 419.648C244.275 421.665 250.883 424.498 256 424.498C260.108 424.498 263.267 423.556 265.458 421.715C268.391 422.857 271.725 422.865 274.933 421.615C278.725 420.148 281.841 417.19 283.608 413.607C286.891 414.307 290.65 413.815 294.066 412.098C297.408 410.415 299.825 407.84 301.025 404.832C304.341 405.007 307.758 403.832 310.583 401.407C315.367 397.315 316.683 390.949 313.917 385.207Z" fill="#156CB5"/>
<path d="M239.333 316.165H201.833C199.533 316.165 197.667 318.032 197.667 320.332C197.667 322.632 199.533 324.499 201.833 324.499H239.333C241.633 324.499 243.5 322.632 243.5 320.332C243.5 318.032 241.633 316.165 239.333 316.165Z" fill="#156CB5"/>
<path d="M326.125 376.34C324.833 374.432 322.25 373.907 320.342 375.207L308.159 383.39C306.251 384.673 305.742 387.265 307.026 389.173C307.834 390.365 309.151 391.015 310.492 391.015C311.284 391.015 312.092 390.79 312.809 390.307L324.992 382.124C326.9 380.84 327.408 378.249 326.125 376.34Z" fill="#156CB5"/>
<path d="M300.258 396.224C297.275 393.874 283.933 380.216 275.683 371.616C274.091 369.949 271.45 369.891 269.791 371.491C268.124 373.082 268.074 375.724 269.666 377.382C271.808 379.616 290.699 399.307 295.091 402.774C295.849 403.374 296.766 403.666 297.666 403.666C298.891 403.666 300.116 403.116 300.949 402.074C302.375 400.274 302.067 397.649 300.258 396.224Z" fill="#156CB5"/>
<path d="M283.608 404.582C278.616 400.59 266.075 387.265 263.241 384.182C261.675 382.482 259.05 382.382 257.35 383.932C255.658 385.49 255.541 388.132 257.1 389.824C257.25 389.982 272.216 406.141 278.4 411.091C279.166 411.699 280.091 411.999 281 411.999C282.216 411.999 283.433 411.457 284.258 410.441C285.692 408.64 285.4 406.015 283.608 404.582Z" fill="#156CB5"/>
<path d="M267.025 412.974C261.083 407.966 248.925 395.024 246.55 392.482C244.975 390.799 242.333 390.707 240.658 392.282C238.975 393.857 238.891 396.49 240.458 398.174C243.875 401.832 255.508 414.166 261.65 419.349C262.433 420.007 263.383 420.332 264.333 420.332C265.516 420.332 266.7 419.824 267.525 418.849C269.008 417.082 268.783 414.457 267.025 412.974Z" fill="#156CB5"/>
<path d="M204.7 308.974C197.558 302.207 169 300.015 160.417 299.507C159.234 299.449 158.142 299.84 157.309 300.632C156.475 301.415 156 302.515 156 303.665V378.665C156 380.965 157.867 382.832 160.167 382.832H185.167C186.967 382.832 188.567 381.674 189.125 379.957C189.733 378.09 204.092 334.024 205.983 312.357C206.092 311.09 205.625 309.84 204.7 308.974ZM182.125 374.499H164.333V308.132C177.725 309.19 192.175 311.49 197.425 314.04C195.217 332.29 185.225 364.715 182.125 374.499Z" fill="#156CB5"/>
<path d="M351.833 307.832C319.116 307.832 300.966 316.207 300.208 316.557C299.125 317.065 298.316 318.007 297.983 319.149C297.65 320.291 297.816 321.516 298.441 322.532C303.591 330.824 319.716 376.874 322.816 388.107C323.316 389.915 324.958 391.165 326.833 391.165H351.833C354.133 391.165 356 389.298 356 386.998V311.998C356 309.69 354.133 307.832 351.833 307.832ZM347.667 382.832H329.95C326 369.965 314.333 336.415 307.825 322.549C314.183 320.391 327.842 316.682 347.667 316.216V382.832Z" fill="#156CB5"/>
</svg>
