<svg width="512" height="512" viewBox="0 0 512 512" fill="none" xmlns="http://www.w3.org/2000/svg">
<path d="M175.355 326.516H188.258V332.968H175.355V326.516Z" fill="#056839"/>
<path d="M346.323 313.613C351.657 313.613 356 309.27 356 303.935V271.677C356 266.343 351.657 262 346.323 262H301.161C295.826 262 291.484 266.343 291.484 271.677V303.935C291.484 309.27 295.826 313.613 301.161 313.613H310.839V320.065H304.387V326.516H320.516V358.774H307.203C304.63 356.262 301.461 354.339 297.913 353.28C297.929 352.954 297.935 352.639 297.935 352.323C297.935 338.093 286.358 326.516 272.129 326.516C263.301 326.516 255.094 331.109 250.394 338.455C247.083 336.968 243.503 336.194 239.871 336.194C229.165 336.194 219.525 342.941 215.755 352.839C213.304 353.365 211.02 354.307 208.945 355.548H185.032V345.871H197.935C203.27 345.871 207.613 341.528 207.613 336.194V271.677C207.613 266.343 203.27 262 197.935 262H165.677C160.343 262 156 266.343 156 271.677V336.194C156 341.528 160.343 345.871 165.677 345.871H178.581V362H202.084C200.712 363.958 199.648 366.119 198.948 368.452H185.032V403.935H172.129C166.794 403.935 162.452 408.278 162.452 413.613V442.645H156V452.323C156 457.657 160.343 462 165.677 462H217.29C222.625 462 226.968 457.657 226.968 452.323V442.645H220.516V413.613C220.516 408.278 216.174 403.935 210.839 403.935H191.484V374.903H197.935C197.935 387.351 208.068 397.484 220.516 397.484H291.484C302.836 397.484 312.233 389.052 313.806 378.129H326.968V403.935H304.387V462H356V403.935H333.419V371.677H313.794C313.458 369.406 312.762 367.245 311.787 365.226H326.968V326.516H343.097V320.065H336.645V313.613H346.323ZM201.161 313.613H162.452V281.355H201.161V313.613ZM165.677 268.452H197.935C199.715 268.452 201.161 269.898 201.161 271.677V274.903H162.452V271.677C162.452 269.898 163.898 268.452 165.677 268.452ZM162.452 336.194V320.065H201.161V336.194C201.161 337.973 199.715 339.419 197.935 339.419H165.677C163.898 339.419 162.452 337.973 162.452 336.194ZM220.516 452.323C220.516 454.102 219.07 455.548 217.29 455.548H165.677C163.898 455.548 162.452 454.102 162.452 452.323V449.097H220.516V452.323ZM214.065 413.613V442.645H168.903V413.613C168.903 411.833 170.349 410.387 172.129 410.387H210.839C212.619 410.387 214.065 411.833 214.065 413.613ZM310.839 455.548V436.194H349.548V455.548H310.839ZM349.548 429.742H310.839V410.387H349.548V429.742ZM291.484 391.032H220.516C211.623 391.032 204.387 383.796 204.387 374.903C204.387 366.749 210.491 359.87 218.58 358.903L220.697 358.648L221.294 356.601C223.681 348.383 231.323 342.645 239.871 342.645C243.432 342.645 246.929 343.645 249.994 345.532L253.073 347.432L254.609 344.151C257.785 337.354 264.661 332.968 272.129 332.968C282.803 332.968 291.484 341.648 291.484 352.323C291.484 353.213 291.404 354.161 291.229 355.306L290.742 358.497L293.932 358.981C301.731 360.171 307.613 367.017 307.613 374.903C307.613 383.796 300.377 391.032 291.484 391.032V391.032ZM301.161 268.452H346.323C348.102 268.452 349.548 269.898 349.548 271.677V294.258H297.935V271.677C297.935 269.898 299.381 268.452 301.161 268.452ZM297.935 303.935V300.71H349.548V303.935C349.548 305.715 348.102 307.161 346.323 307.161H301.161C299.381 307.161 297.935 305.715 297.935 303.935ZM330.194 320.065H317.29V313.613H330.194V320.065Z" fill="#056839"/>
<path d="M317.291 416.839H323.742V423.29H317.291V416.839Z" fill="#056839"/>
<path d="M336.645 442.645H343.097V449.097H336.645V442.645Z" fill="#056839"/>
<path d="M330.193 416.839H343.097V423.29H330.193V416.839Z" fill="#056839"/>
<path d="M317.291 442.645H330.194V449.097H317.291V442.645Z" fill="#056839"/>
</svg>
