<svg width="512" height="512" viewBox="0 0 512 512" fill="none" xmlns="http://www.w3.org/2000/svg">
<path d="M352.094 262H194.281C192.124 262 190.375 263.749 190.375 265.906V283.094H177.094C174.937 283.094 173.188 284.843 173.188 287V308.094H159.906C157.749 308.094 156 309.843 156 312V440.906C156 452.537 165.463 462 177.094 462H334.906C346.537 462 356 452.537 356 440.906V265.906C356 263.749 354.251 262 352.094 262ZM348.188 440.906C348.188 448.23 342.23 454.188 334.906 454.188H193.466C196.415 450.559 198.188 445.936 198.188 440.906V388.173C198.188 386.016 196.438 384.267 194.281 384.267C192.124 384.267 190.375 386.016 190.375 388.173V440.906C190.375 448.23 184.417 454.188 177.094 454.188C169.77 454.188 163.812 448.23 163.812 440.906V315.906H173.188V437C173.188 439.157 174.937 440.906 177.094 440.906C179.251 440.906 181 439.157 181 437V290.906H190.375V353.017C190.375 355.174 192.124 356.923 194.281 356.923C196.438 356.923 198.188 355.174 198.188 353.017V269.812H348.188V440.906Z" fill="#F68421"/>
<path d="M213.031 323.719H333.344C335.501 323.719 337.25 321.97 337.25 319.812V291.688C337.25 289.53 335.501 287.781 333.344 287.781H213.031C210.874 287.781 209.125 289.53 209.125 291.688V319.812C209.125 321.97 210.874 323.719 213.031 323.719ZM216.938 295.594H329.438V315.906H216.938V295.594Z" fill="#F68421"/>
<path d="M213.031 417.469H273.188C275.345 417.469 277.094 415.72 277.094 413.562V338.562C277.094 336.405 275.345 334.656 273.188 334.656H213.031C210.874 334.656 209.125 336.405 209.125 338.562V413.562C209.125 415.72 210.874 417.469 213.031 417.469ZM216.938 342.469H269.281V409.656H216.938V342.469Z" fill="#F68421"/>
<path d="M333.344 334.656H291.938C289.78 334.656 288.031 336.405 288.031 338.562C288.031 340.72 289.78 342.469 291.938 342.469H333.344C335.501 342.469 337.25 340.72 337.25 338.562C337.25 336.405 335.501 334.656 333.344 334.656Z" fill="#F68421"/>
<path d="M333.344 353.406H291.938C289.78 353.406 288.031 355.155 288.031 357.312C288.031 359.47 289.78 361.219 291.938 361.219H333.344C335.501 361.219 337.25 359.47 337.25 357.312C337.25 355.155 335.501 353.406 333.344 353.406Z" fill="#F68421"/>
<path d="M333.344 372.156H291.938C289.78 372.156 288.031 373.905 288.031 376.062C288.031 378.22 289.78 379.969 291.938 379.969H333.344C335.501 379.969 337.25 378.22 337.25 376.062C337.25 373.905 335.501 372.156 333.344 372.156Z" fill="#F68421"/>
<path d="M333.344 390.906H291.938C289.78 390.906 288.031 392.655 288.031 394.812C288.031 396.97 289.78 398.719 291.938 398.719H333.344C335.501 398.719 337.25 396.97 337.25 394.812C337.25 392.655 335.501 390.906 333.344 390.906Z" fill="#F68421"/>
<path d="M333.344 409.656H291.938C289.78 409.656 288.031 411.405 288.031 413.562C288.031 415.72 289.78 417.469 291.938 417.469H333.344C335.501 417.469 337.25 415.72 337.25 413.562C337.25 411.405 335.501 409.656 333.344 409.656Z" fill="#F68421"/>
<path d="M213.031 436.219H333.344C335.501 436.219 337.25 434.47 337.25 432.312C337.25 430.155 335.501 428.406 333.344 428.406H213.031C210.874 428.406 209.125 430.155 209.125 432.312C209.125 434.47 210.874 436.219 213.031 436.219Z" fill="#F68421"/>
<path d="M194.477 366.688C193.449 366.688 192.441 367.105 191.715 367.832C190.988 368.559 190.57 369.566 190.57 370.594C190.57 371.625 190.988 372.629 191.715 373.355C192.441 374.086 193.449 374.5 194.477 374.5C195.504 374.5 196.512 374.086 197.238 373.355C197.964 372.629 198.383 371.621 198.383 370.594C198.383 369.566 197.965 368.559 197.238 367.832C196.512 367.105 195.504 366.688 194.477 366.688Z" fill="#F68421"/>
</svg>
